<?xml version="1.0" encoding="UTF-8" standalone="no"?>
<!DOCTYPE svg PUBLIC "-//W3C//DTD SVG 1.1//EN" "http://www.w3.org/Graphics/SVG/1.1/DTD/svg11.dtd">
<svg width="100%" height="100%" viewBox="0 0 945 1536" version="1.1" xmlns="http://www.w3.org/2000/svg" xmlns:xlink="http://www.w3.org/1999/xlink" xml:space="preserve" xmlns:serif="http://www.serif.com/" style="fill-rule:evenodd;clip-rule:evenodd;stroke-linejoin:round;stroke-miterlimit:1.41421;">
    <g id="Engraving" transform="matrix(1.16578,0,0,1.16578,-78.156,-86.154)">
        <g id="Text" transform="matrix(0.857794,0,0,0.857794,106.678,127.364)">
            <path d="M213.331,823.063L213.331,825.813L216.581,826.313C218.831,826.813 221.456,829.188 221.456,838.688L221.456,858.938C222.581,857.938 223.831,857.938 225.831,858.938C225.206,860.563 223.831,863.188 222.206,865.063C223.831,869.188 225.206,874.938 226.081,885.563C227.081,874.938 228.456,869.188 230.331,865.063C228.581,863.188 226.956,860.563 226.331,858.938C228.706,857.938 230.956,857.938 233.331,858.938C235.706,857.938 238.206,857.938 240.581,858.938C242.831,857.938 245.206,857.938 247.456,858.938C249.831,857.938 251.581,857.938 253.331,858.938C253.706,861.063 253.206,863.063 252.081,865.063C256.206,868.688 260.456,874.688 262.081,885.563C262.331,874.938 261.706,869.188 260.206,865.063C258.206,862.438 256.706,860.938 253.831,858.938C256.081,857.938 257.831,857.938 258.831,858.938C264.081,856.188 267.831,850.813 267.831,841.813C267.831,827.688 259.331,823.063 246.331,823.063L213.331,823.063ZM217.081,881.313C217.081,885.688 216.206,889.188 213.831,889.688L208.956,890.438L208.956,901.938L216.956,912.438L253.331,912.438L253.331,901.813L244.706,891.188L244.706,876.563L250.581,876.563C251.456,879.063 251.831,890.313 255.581,898.188C260.081,907.813 267.706,912.438 274.706,912.438C284.831,912.438 290.456,906.438 290.456,890.188L290.456,882.813L280.831,870.688L272.206,870.688C277.456,867.688 281.456,861.688 281.456,853.563C281.456,839.063 270.331,818.688 247.581,818.688L208.956,818.688L208.956,830.188L212.956,830.938C215.331,831.188 217.081,832.938 217.081,838.688L217.081,881.313ZM233.331,865.438L233.331,881.938C233.331,887.688 234.706,891.688 239.206,892.188L242.081,892.563L242.081,899.688L211.206,899.688L211.206,892.563L215.206,891.938C218.206,891.313 219.206,887.688 219.206,881.938L219.206,838.688C219.206,832.813 217.706,829.188 215.206,828.688L211.206,828.063L211.206,820.938L246.456,820.938C262.456,820.938 269.956,828.938 269.956,841.813C269.956,851.813 265.581,857.438 260.831,860.063L260.831,860.313C265.081,863.438 266.706,868.188 267.331,875.063C267.956,882.188 268.456,885.563 270.456,885.563C272.331,885.563 272.831,881.438 272.831,878.688L272.831,872.938L280.081,872.938L280.081,878.688C280.081,896.063 275.331,900.563 267.956,900.563C258.956,900.563 255.331,895.813 253.581,880.563C252.831,873.313 250.831,865.438 245.081,865.438L233.331,865.438ZM225.831,858.813C225.206,854.438 223.831,851.938 222.206,850.063C224.081,847.063 225.456,842.563 226.081,833.188C226.956,842.563 228.456,847.063 230.331,850.063C228.456,851.938 226.956,854.438 226.331,858.813L225.831,858.813ZM246.081,829.688C252.831,829.688 257.206,834.563 257.206,842.938C257.206,851.813 250.956,855.813 246.331,855.813L231.081,855.813L231.081,839.313C231.081,832.688 232.581,829.688 237.706,829.688L246.081,829.688ZM253.331,858.813C255.706,856.563 257.831,852.813 258.206,849.563C260.456,847.188 263.331,841.938 260.581,833.188C264.081,840.563 265.081,846.313 265.081,850.063C261.456,853.688 257.956,856.063 253.831,858.813L253.331,858.813ZM249.956,844.563C250.956,844.563 251.956,845.563 251.956,846.813C251.956,849.188 248.956,851.563 246.831,851.563L244.706,851.563L244.706,848.438C244.706,845.938 245.706,844.563 247.081,844.563L249.956,844.563ZM237.581,831.813C234.956,831.813 233.331,833.313 233.331,839.313L233.331,853.563L246.456,853.563C250.581,853.563 254.956,849.688 254.956,842.938C254.956,835.063 250.581,831.813 246.456,831.813L237.581,831.813Z" style="fill:none;stroke:black;stroke-width:3.33px;"/>
            <path d="M312.831,862.563L312.831,883.063C312.831,888.063 314.706,891.688 321.081,891.688C329.831,891.688 331.956,885.313 331.956,877.563L331.956,871.438L339.831,871.438L339.831,899.688L290.706,899.688L290.706,892.563L294.706,891.938C297.706,891.438 298.706,887.688 298.706,881.938L298.706,838.688C298.706,832.813 297.206,829.188 294.706,828.688L290.706,828.063L290.706,820.938L339.831,820.938L339.831,848.188L331.956,848.188L331.956,842.938C331.956,833.563 326.956,828.688 321.081,828.688C314.706,828.688 312.831,831.688 312.831,837.438L312.831,853.688L325.206,853.688L325.206,862.563L312.831,862.563ZM292.831,823.063L292.831,825.813L296.081,826.313C298.331,826.813 300.956,829.188 300.956,838.688L300.956,858.938C302.081,857.938 303.831,857.938 305.581,858.938C304.956,860.563 303.581,863.188 301.706,865.063C303.581,869.188 304.956,874.938 305.831,885.563C306.706,874.938 308.081,869.188 309.956,865.063C308.081,863.188 306.706,860.563 305.956,858.938C308.831,857.938 311.831,858.063 314.456,859.063C316.956,858.063 320.206,857.938 323.081,858.938L323.081,855.938L310.581,855.938L310.581,837.438C310.581,832.063 312.706,826.563 321.081,826.563C326.706,826.563 334.206,829.938 334.206,842.938L334.206,846.063L337.706,846.063L337.706,823.063L292.831,823.063ZM296.581,838.688L296.581,881.313C296.581,885.688 295.706,889.188 293.331,889.688L288.456,890.438L288.456,901.938L296.456,912.438L351.331,912.438L351.331,882.188L341.581,869.188L335.331,869.188L335.331,863.563L324.331,848.938L324.206,845.813C324.081,843.438 325.081,841.438 327.206,841.438C329.206,841.438 329.831,842.938 329.831,845.563L329.831,849.938L338.206,860.938L351.331,860.938L351.331,831.438L341.581,818.688L288.456,818.688L288.456,830.188L292.456,830.938C294.831,831.188 296.581,832.938 296.581,838.688ZM305.581,858.813C304.956,854.438 303.581,851.938 301.706,850.063C303.581,847.063 304.956,842.563 305.831,833.188C306.706,842.563 308.081,847.063 309.831,850.063C308.081,851.938 306.706,854.438 305.956,858.813L305.581,858.813ZM324.206,875.313L329.831,875.313L329.831,877.313C329.831,884.688 327.456,887.688 325.956,887.688C324.706,887.688 324.206,885.813 324.206,883.813L324.206,875.313Z" style="fill:none;stroke:black;stroke-width:3.33px;"/>
            <path d="M352.956,820.938L383.206,820.938L383.206,828.063L379.206,828.688C376.456,829.063 375.456,831.563 376.456,836.938L385.081,879.938L396.456,837.563C398.081,832.188 396.956,829.188 393.706,828.688L389.706,828.063L389.706,820.938L413.831,820.938L413.831,828.063L409.831,828.688C407.081,829.188 405.831,834.063 403.581,842.438L387.956,899.688L374.456,899.688L362.206,836.938C361.331,832.688 359.456,829.063 356.956,828.688L352.956,828.063L352.956,820.938ZM355.081,823.063L355.081,825.813L357.581,826.313C361.081,826.813 363.456,830.688 364.956,838.438L369.081,858.938C369.956,857.938 371.456,857.938 373.456,858.938C372.956,861.063 372.206,863.063 370.706,865.063C374.206,871.938 376.456,878.813 378.831,885.563C378.206,878.813 377.831,871.938 378.831,865.063C376.456,863.063 374.956,861.063 373.831,858.938C375.206,857.938 376.956,857.938 378.331,858.938L374.206,838.438C372.581,830.188 374.456,826.813 378.206,826.313L380.956,825.813L380.956,823.063L355.081,823.063ZM384.081,818.688L350.706,818.688L350.706,830.188L355.956,830.938C357.956,831.188 359.331,834.063 359.831,837.313L372.456,901.938L380.456,912.438L397.456,912.438L414.581,849.688C415.956,844.813 418.331,841.938 421.331,841.438L425.206,840.813L425.206,830.938L415.956,818.688L387.581,818.688L387.581,825.313L384.081,818.688ZM391.956,823.063L391.956,826.063L394.331,826.438C398.081,826.938 400.956,830.063 398.706,838.438L393.081,858.938C394.331,857.938 395.706,857.938 396.581,858.938L402.206,838.438C403.956,832.313 405.956,826.813 408.956,826.313L411.581,825.813L411.581,823.063L391.956,823.063ZM373.456,858.813C372.081,855.813 370.456,852.938 368.081,850.063C369.081,844.438 369.081,838.813 368.706,833.188C370.706,838.813 372.706,844.438 375.831,850.063C374.706,852.938 373.831,855.813 373.831,858.813L373.456,858.813ZM393.331,841.188L389.456,856.063L387.956,848.063C387.206,844.438 388.206,841.188 391.206,841.188L393.331,841.188Z" style="fill:none;stroke:black;stroke-width:3.33px;"/>
            <path d="M447.331,862.563L447.331,883.063C447.331,888.063 449.206,891.688 455.581,891.688C464.331,891.688 466.456,885.313 466.456,877.563L466.456,871.438L474.331,871.438L474.331,899.688L425.206,899.688L425.206,892.563L429.206,891.938C432.206,891.438 433.206,887.688 433.206,881.938L433.206,838.688C433.206,832.813 431.706,829.188 429.206,828.688L425.206,828.063L425.206,820.938L474.331,820.938L474.331,848.188L466.456,848.188L466.456,842.938C466.456,833.563 461.456,828.688 455.581,828.688C449.206,828.688 447.331,831.688 447.331,837.438L447.331,853.688L459.706,853.688L459.706,862.563L447.331,862.563ZM427.331,823.063L427.331,825.813L430.581,826.313C432.831,826.813 435.456,829.188 435.456,838.688L435.456,858.938C436.581,857.938 438.331,857.938 440.081,858.938C439.456,860.563 438.081,863.188 436.206,865.063C438.081,869.188 439.456,874.938 440.331,885.563C441.206,874.938 442.581,869.188 444.456,865.063C442.581,863.188 441.206,860.563 440.456,858.938C443.331,857.938 446.331,858.063 448.956,859.063C451.456,858.063 454.706,857.938 457.581,858.938L457.581,855.938L445.081,855.938L445.081,837.438C445.081,832.063 447.206,826.563 455.581,826.563C461.206,826.563 468.706,829.938 468.706,842.938L468.706,846.063L472.206,846.063L472.206,823.063L427.331,823.063ZM431.081,838.688L431.081,881.313C431.081,885.688 430.206,889.188 427.831,889.688L422.956,890.438L422.956,901.938L430.956,912.438L485.831,912.438L485.831,882.188L476.081,869.188L469.831,869.188L469.831,863.563L458.831,848.938L458.706,845.813C458.581,843.438 459.581,841.438 461.706,841.438C463.706,841.438 464.331,842.938 464.331,845.563L464.331,849.938L472.706,860.938L485.831,860.938L485.831,831.438L476.081,818.688L422.956,818.688L422.956,830.188L426.956,830.938C429.331,831.188 431.081,832.938 431.081,838.688ZM440.081,858.813C439.456,854.438 438.081,851.938 436.206,850.063C438.081,847.063 439.456,842.563 440.331,833.188C441.206,842.563 442.581,847.063 444.331,850.063C442.581,851.938 441.206,854.438 440.456,858.813L440.081,858.813ZM458.706,875.313L464.331,875.313L464.331,877.313C464.331,884.688 461.956,887.688 460.456,887.688C459.206,887.688 458.706,885.813 458.706,883.813L458.706,875.313Z" style="fill:none;stroke:black;stroke-width:3.33px;"/>
            <path d="M491.706,823.063L491.706,825.813L494.956,826.313C497.206,826.813 499.831,829.188 499.831,838.688L499.831,858.938C500.956,857.938 502.206,857.938 504.206,858.938C503.581,860.563 502.206,863.188 500.581,865.063C502.206,869.188 503.581,874.938 504.456,885.563C505.456,874.938 506.831,869.188 508.706,865.063C506.956,863.188 505.331,860.563 504.706,858.938C507.081,857.938 509.331,857.938 511.706,858.938C514.081,857.938 516.581,857.938 518.956,858.938C521.206,857.938 523.581,857.938 525.831,858.938C528.206,857.938 529.956,857.938 531.706,858.938C532.081,861.063 531.581,863.063 530.456,865.063C534.581,868.688 538.831,874.688 540.456,885.563C540.706,874.938 540.081,869.188 538.581,865.063C536.581,862.438 535.081,860.938 532.206,858.938C534.456,857.938 536.206,857.938 537.206,858.938C542.456,856.188 546.206,850.813 546.206,841.813C546.206,827.688 537.706,823.063 524.706,823.063L491.706,823.063ZM495.456,881.313C495.456,885.688 494.581,889.188 492.206,889.688L487.331,890.438L487.331,901.938L495.331,912.438L531.706,912.438L531.706,901.813L523.081,891.188L523.081,876.563L528.956,876.563C529.831,879.063 530.206,890.313 533.956,898.188C538.456,907.813 546.081,912.438 553.081,912.438C563.206,912.438 568.831,906.438 568.831,890.188L568.831,882.813L559.206,870.688L550.581,870.688C555.831,867.688 559.831,861.688 559.831,853.563C559.831,839.063 548.706,818.688 525.956,818.688L487.331,818.688L487.331,830.188L491.331,830.938C493.706,831.188 495.456,832.938 495.456,838.688L495.456,881.313ZM511.706,865.438L511.706,881.938C511.706,887.688 513.081,891.688 517.581,892.188L520.456,892.563L520.456,899.688L489.581,899.688L489.581,892.563L493.581,891.938C496.581,891.313 497.581,887.688 497.581,881.938L497.581,838.688C497.581,832.813 496.081,829.188 493.581,828.688L489.581,828.063L489.581,820.938L524.831,820.938C540.831,820.938 548.331,828.938 548.331,841.813C548.331,851.813 543.956,857.438 539.206,860.063L539.206,860.313C543.456,863.438 545.081,868.188 545.706,875.063C546.331,882.188 546.831,885.563 548.831,885.563C550.706,885.563 551.206,881.438 551.206,878.688L551.206,872.938L558.456,872.938L558.456,878.688C558.456,896.063 553.706,900.563 546.331,900.563C537.331,900.563 533.706,895.813 531.956,880.563C531.206,873.313 529.206,865.438 523.456,865.438L511.706,865.438ZM504.206,858.813C503.581,854.438 502.206,851.938 500.581,850.063C502.456,847.063 503.831,842.563 504.456,833.188C505.331,842.563 506.831,847.063 508.706,850.063C506.831,851.938 505.331,854.438 504.706,858.813L504.206,858.813ZM524.456,829.688C531.206,829.688 535.581,834.563 535.581,842.938C535.581,851.813 529.331,855.813 524.706,855.813L509.456,855.813L509.456,839.313C509.456,832.688 510.956,829.688 516.081,829.688L524.456,829.688ZM531.706,858.813C534.081,856.563 536.206,852.813 536.581,849.563C538.831,847.188 541.706,841.938 538.956,833.188C542.456,840.563 543.456,846.313 543.456,850.063C539.831,853.688 536.331,856.063 532.206,858.813L531.706,858.813ZM528.331,844.563C529.331,844.563 530.331,845.563 530.331,846.813C530.331,849.188 527.331,851.563 525.206,851.563L523.081,851.563L523.081,848.438C523.081,845.938 524.081,844.563 525.456,844.563L528.331,844.563ZM515.956,831.813C513.331,831.813 511.706,833.313 511.706,839.313L511.706,853.563L524.831,853.563C528.956,853.563 533.331,849.688 533.331,842.938C533.331,835.063 528.956,831.813 524.831,831.813L515.956,831.813Z" style="fill:none;stroke:black;stroke-width:3.33px;"/>
            <path d="M574.331,823.063L574.331,825.813L577.581,826.313C579.831,826.813 582.456,829.188 582.456,838.688L582.456,858.938C583.706,857.938 585.331,857.938 586.831,858.938C586.206,860.563 584.831,863.188 583.081,865.063C584.831,869.188 586.206,874.938 587.081,885.563C587.956,874.938 589.456,869.188 591.081,865.063C589.456,863.188 587.956,860.563 587.331,858.938C589.706,857.938 591.956,857.938 594.331,858.938C596.706,857.938 599.206,857.938 601.581,858.938C603.831,857.938 606.206,857.938 608.456,858.938C610.581,857.938 612.831,857.938 614.831,858.938C615.956,861.063 616.581,863.313 616.206,865.438C620.206,868.188 623.831,875.188 621.831,885.563C625.581,877.813 625.581,868.188 623.581,863.813C621.456,861.688 618.331,859.938 615.206,858.938C617.331,857.938 619.206,857.938 620.581,858.938C623.581,856.188 628.831,850.688 628.831,841.813C628.831,828.563 619.581,823.063 607.331,823.063L574.331,823.063ZM578.081,881.313C578.081,885.688 577.206,889.188 574.831,889.688L569.956,890.438L569.956,901.938L577.956,912.438L622.331,912.438C634.206,912.438 642.956,903.688 642.956,891.188C642.956,881.938 639.706,875.188 634.831,869.438C638.206,866.688 642.456,860.938 642.456,852.813C642.456,837.188 630.331,818.688 608.581,818.688L569.956,818.688L569.956,830.188L573.956,830.938C576.331,831.188 578.081,832.938 578.081,838.688L578.081,881.313ZM586.831,858.813C586.206,854.438 584.831,851.938 583.206,850.063C584.831,847.063 586.206,842.563 587.081,833.188C587.956,842.563 589.456,847.063 591.331,850.063C589.456,851.938 587.956,854.438 587.331,858.813L586.831,858.813ZM592.081,839.313C592.081,832.313 594.331,827.688 598.581,827.688L607.081,827.688C613.831,827.688 618.206,834.813 618.206,842.938C618.206,850.813 614.581,856.063 604.706,856.063L592.081,856.063L592.081,839.313ZM614.831,858.813C616.956,856.188 618.831,853.188 619.206,849.188C621.831,846.563 622.581,841.563 621.581,833.188C624.581,838.188 625.456,844.813 625.331,850.063C623.581,853.063 619.706,855.938 615.206,858.813L614.831,858.813ZM611.456,842.563C612.706,842.563 612.956,844.563 612.956,846.813C612.956,849.688 609.956,851.438 607.831,851.438L605.706,851.438L605.706,847.063C605.706,844.813 606.706,842.563 608.206,842.563L611.456,842.563ZM605.581,890.938C612.331,890.938 615.956,882.938 615.956,875.938C615.956,868.063 611.831,862.563 605.206,862.563L594.331,862.563L594.331,881.938C594.331,887.688 595.956,890.938 598.581,890.938L605.581,890.938ZM580.206,838.688C580.206,832.813 578.706,829.188 576.206,828.688L572.206,828.063L572.206,820.938L607.456,820.938C622.831,820.938 630.956,828.938 630.956,841.813C630.956,851.188 626.456,856.813 623.831,858.813L623.831,858.938C629.081,863.313 631.456,869.063 631.456,876.063C631.456,891.688 623.206,899.688 610.706,899.688L572.206,899.688L572.206,892.563L576.206,891.938C579.206,891.313 580.206,887.688 580.206,881.938L580.206,838.688ZM594.331,853.938L605.581,853.938C612.456,853.938 615.956,849.688 615.956,842.938C615.956,835.063 611.581,829.813 607.456,829.813L598.581,829.813C595.956,829.813 594.331,833.188 594.331,839.313L594.331,853.938ZM605.706,875.063L609.956,875.188C611.956,875.188 613.081,877.188 613.081,879.438C613.081,883.813 609.706,888.188 607.581,888.188C606.456,888.188 605.706,886.188 605.706,883.438L605.706,875.063Z" style="fill:none;stroke:black;stroke-width:3.33px;"/>
        </g>
        <g id="Pot-gauge" serif:id="Pot gauge" transform="matrix(1.04651,0,0,1.04651,-21.9275,-24.1714)">
            <g transform="matrix(-1.06244,-0.613753,0.613753,-1.06244,653.361,1361.17)">
                <path d="M358.732,455.353C347.326,475.108 341.489,496.874 341.489,519.685C341.489,591.408 399.718,649.637 471.441,649.637C543.164,649.637 601.393,591.408 601.393,519.685C601.393,447.914 543.212,389.733 471.441,389.733" style="fill:none;stroke:black;stroke-width:2.23px;stroke-linecap:round;stroke-miterlimit:1.5;stroke-dasharray:2.23,0.11,2.23,0;"/>
            </g>
            <path d="M385.634,667.994C334.773,638.139 300.596,582.872 300.596,519.685C300.596,424.841 377.597,347.84 472.441,347.84C567.285,347.84 644.286,424.841 644.286,519.685C644.286,583.194 609.759,638.703 558.468,668.449" style="fill:none;stroke:black;stroke-width:2.73px;stroke-linecap:round;stroke-miterlimit:1.5;stroke-dasharray:2.73,0.14,2.73,0;"/>
            <g transform="matrix(0.0385154,0.0550056,-0.0550056,0.0385154,351.516,565.63)">
                <path d="M472.441,519.685L472.441,691.53" style="fill:none;stroke:black;stroke-width:40.69px;stroke-linecap:round;stroke-miterlimit:1.5;stroke-dasharray:40.69,2.03,40.69,0;"/>
            </g>
            <g transform="matrix(-0.0171558,0.0640262,-0.0640262,-0.0171558,358.833,456.823)">
                <path d="M472.441,519.685L472.441,691.53" style="fill:none;stroke:black;stroke-width:41.22px;stroke-linecap:round;stroke-miterlimit:1.5;stroke-dasharray:41.22,2.06,41.22,0;"/>
            </g>
            <g transform="matrix(-0.0632412,0.0294899,-0.0294899,-0.0632412,450.087,393.742)">
                <path d="M472.441,519.685L472.441,691.53" style="fill:none;stroke:black;stroke-width:39.16px;stroke-linecap:round;stroke-miterlimit:1.5;stroke-dasharray:39.16,1.96,39.16,0;"/>
            </g>
            <g transform="matrix(-0.0440802,0.0629531,0.0629531,0.0440802,590.499,558.027)">
                <path d="M472.441,519.685L472.441,691.53" style="fill:none;stroke:black;stroke-width:35.55px;stroke-linecap:round;stroke-miterlimit:1.5;stroke-dasharray:35.55,1.78,35.55,0;"/>
            </g>
            <g transform="matrix(0.0201718,0.0752822,0.0752822,-0.0201718,576.84,453.591)">
                <path d="M472.441,519.685L472.441,691.53" style="fill:none;stroke:black;stroke-width:35.06px;stroke-linecap:round;stroke-miterlimit:1.5;stroke-dasharray:35.06,1.75,35.06,0;"/>
            </g>
            <g transform="matrix(0.0675785,0.0315124,0.0315124,-0.0675785,491.347,395.786)">
                <path d="M472.441,519.685L472.441,691.53" style="fill:none;stroke:black;stroke-width:36.64px;stroke-linecap:round;stroke-miterlimit:1.5;stroke-dasharray:36.64,1.83,36.64,0;"/>
            </g>
            <g transform="matrix(-0.866025,-0.5,0.5,-0.866025,621.744,1205.97)">
                <path d="M572.806,693.589L552.166,657.772" style="fill:none;stroke:black;stroke-width:2.73px;stroke-linecap:round;stroke-miterlimit:1.5;stroke-dasharray:2.73,0.14,2.73,0;"/>
            </g>
            <g transform="matrix(-0.173648,-0.984808,0.984808,-0.173648,42.6896,1075.19)">
                <path d="M572.806,693.589L551.773,657.145" style="fill:none;stroke:black;stroke-width:2.73px;stroke-linecap:round;stroke-miterlimit:1.5;stroke-dasharray:2.73,0.14,2.73,0;"/>
            </g>
            <g transform="matrix(0.642788,-0.766044,0.766044,0.642788,-229.34,547.549)">
                <path d="M572.806,693.589L551.665,656.957" style="fill:none;stroke:black;stroke-width:2.73px;stroke-linecap:round;stroke-miterlimit:1.5;stroke-dasharray:2.73,0.14,2.73,0;"/>
            </g>
            <g transform="matrix(0.173648,-0.984808,-0.984808,-0.173648,902.192,1075.19)">
                <path d="M572.806,693.589L552.536,658.467" style="fill:none;stroke:black;stroke-width:2.73px;stroke-linecap:round;stroke-miterlimit:1.5;stroke-dasharray:2.73,0.14,2.73,0;"/>
            </g>
            <g transform="matrix(-0.642788,-0.766044,-0.766044,0.642788,1174.22,547.549)">
                <path d="M572.806,693.589L552.636,658.641" style="fill:none;stroke:black;stroke-width:2.73px;stroke-linecap:round;stroke-miterlimit:1.5;stroke-dasharray:2.73,0.14,2.73,0;"/>
            </g>
            <g transform="matrix(1,0,0,1,-0.0334131,0)">
                <path d="M572.691,693.639L551.737,657.21" style="fill:none;stroke:black;stroke-width:2.73px;stroke-linecap:round;stroke-miterlimit:1.5;stroke-dasharray:2.73,0.14,2.73,0;"/>
            </g>
            <g transform="matrix(0.857794,0,0,0.857794,67.0418,73.9024)">
                <path d="M378.46,680.641L371.409,692.581" style="fill:none;stroke:black;stroke-width:3.19px;stroke-linecap:round;stroke-miterlimit:1.5;stroke-dasharray:3.19,0.16,3.19,0;"/>
            </g>
        </g>
        <g transform="matrix(0.285931,0,0,0.285931,171.733,634.508)">
            <path d="M153.543,909.449L212.598,980.315L153.543,1051.18" style="fill:none;stroke:black;stroke-width:12.5px;stroke-linecap:round;stroke-miterlimit:1.5;stroke-dasharray:12.5,0.63,12.5,0;"/>
        </g>
        <g transform="matrix(0.285931,0,0,0.285931,668.173,634.508)">
            <path d="M153.543,909.449L212.598,980.315L153.543,1051.18" style="fill:none;stroke:black;stroke-width:12.5px;stroke-linecap:round;stroke-miterlimit:1.5;stroke-dasharray:12.5,0.63,12.5,0;"/>
        </g>
        <g transform="matrix(0.857794,0,0,0.857794,67.0418,73.9024)">
            <path d="M437.008,519.685L507.874,519.685" style="fill:none;stroke:black;stroke-width:4.17px;stroke-linecap:round;stroke-miterlimit:1.5;stroke-dasharray:4.17,0.21,4.17,0;"/>
        </g>
        <g transform="matrix(0.857794,0,0,0.857794,67.0418,73.9024)">
            <path d="M472.441,484.252L472.441,555.118" style="fill:none;stroke:black;stroke-width:4.17px;stroke-linecap:round;stroke-miterlimit:1.5;stroke-dasharray:4.17,0.21,4.17,0;"/>
        </g>
    </g>
</svg>
